0
SECTION
2
HEADER
9
$INSUNITS
70
4
9
$ACADVER
1
AC1014
9
$HANDSEED
5
FFFF
0
ENDSEC
0
SECTION
2
TABLES
0
TABLE
2
VPORT
5
8
100
AcDbSymbolTable
0
ENDTAB
0
TABLE
2
LTYPE
5
5
100
AcDbSymbolTable
0
LTYPE
5
14
100
AcDbSymbolTableRecord
100
AcDbLinetypeTableRecord
2
BYBLOCK
70
0
0
LTYPE
5
15
100
AcDbSymbolTableRecord
100
AcDbLinetypeTableRecord
2
BYLAYER
70
0
0
ENDTAB
0
TABLE
2
LAYER
5
2
100
AcDbSymbolTable
70
2
0
LAYER
5
50
100
AcDbSymbolTableRecord
100
AcDbLayerTableRecord
2
0
70
0
6
CONTINUOUS
0
ENDTAB
0
TABLE
2
STYLE
5
3
100
AcDbSymbolTable
70
1
0
STYLE
5
11
100
AcDbSymbolTableRecord
100
AcDbTextStyleTableRecord
2
STANDARD
70
0
0
ENDTAB
0
TABLE
2
VIEW
5
6
100
AcDbSymbolTable
70
0
0
ENDTAB
0
TABLE
2
UCS
5
7
100
AcDbSymbolTable
70
0
0
ENDTAB
0
TABLE
2
APPID
5
9
100
AcDbSymbolTable
70
2
0
APPID
5
12
100
AcDbSymbolTableRecord
100
AcDbRegAppTableRecord
2
ACAD
70
0
0
ENDTAB
0
TABLE
2
DIMSTYLE
5
A
100
AcDbSymbolTable
70
1
0
ENDTAB
0
TABLE
2
BLOCK_RECORD
5
1
100
AcDbSymbolTable
70
1
0
BLOCK_RECORD
5
1F
100
AcDbSymbolTableRecord
100
AcDbBlockTableRecord
2
*MODEL_SPACE
0
BLOCK_RECORD
5
1B
100
AcDbSymbolTableRecord
100
AcDbBlockTableRecord
2
*PAPER_SPACE
0
ENDTAB
0
ENDSEC
0
SECTION
2
BLOCKS
0
BLOCK
5
20
100
AcDbEntity
100
AcDbBlockBegin
2
*MODEL_SPACE
0
ENDBLK
5
21
100
AcDbEntity
100
AcDbBlockEnd
0
BLOCK
5
1C
100
AcDbEntity
100
AcDbBlockBegin
2
*PAPER_SPACE
0
ENDBLK
5
1D
100
AcDbEntity
100
AcDbBlockEnd
0
ENDSEC
0
SECTION
2
ENTITIES
0
SPLINE
5
100
100
AcDbEntity
8
0
100
AcDbSpline
70
0
71
3
72
72
73
68
74
0
42
0.000000001
43
0.0000000001
44
0.0000000001
40
0
40
0
40
0
40
0
40
0.099159230467938397
40
0.099159230467938397
40
0.16454837763113389
40
0.16454837763113389
40
0.25930263104435602
40
0.25930263104435602
40
0.42962813555172774
40
0.42962813555172774
40
0.51945820448432178
40
0.51945820448432178
40
0.596958926564081
40
0.596958926564081
40
0.65355503405273052
40
0.65355503405273052
40
1.2271524515282857
40
1.2271524515282857
40
4.4963210443338504
40
4.4963210443338504
40
5.4311951736953192
40
5.4311951736953192
40
7.0157184354574467
40
7.0157184354574467
40
8.9129791439614809
40
8.9129791439614809
40
10.803116135674546
40
10.803116135674546
40
12.159947346444765
40
12.159947346444765
40
13.971923781969569
40
13.971923781969569
40
16.450500337183986
40
16.450500337183986
40
17.173890595108183
40
17.173890595108183
40
17.967235900765228
40
17.967235900765228
40
18.489910490621959
40
18.489910490621959
40
18.97360555865755
40
18.97360555865755
40
19.230498640179501
40
19.230498640179501
40
19.391800830762083
40
19.391800830762083
40
19.610952575304797
40
19.610952575304797
40
19.970641668147042
40
19.970641668147042
40
20.634780746562971
40
20.634780746562971
40
21.537552638709272
40
21.537552638709272
40
22.824101636473408
40
22.824101636473408
40
23.952787308844488
40
23.952787308844488
40
25.493097400173468
40
25.493097400173468
40
27.292333748272533
40
27.292333748272533
40
28.921404416407331
40
28.921404416407331
40
31.524208106422382
40
31.524208106422382
40
34.233311109125268
40
34.233311109125268
40
34.233311109125268
40
34.233311109125268
10
51.74690584690709
20
37.57962814544193
30
0
10
52.077433694914745
20
37.578238744203311
30
0
10
52.216840518730223
20
37.588486946716436
30
0
10
52.447450757819674
20
37.530769990372555
30
0
10
52.52990307909122
20
37.490470483186108
30
0
10
52.752916217964305
20
37.335668404503693
30
0
10
52.953926637263621
20
37.15364914988421
30
0
10
53.103583951404161
20
37.020041817009336
30
0
10
53.168319268879394
20
36.953577734763037
30
0
10
53.244955301066959
20
36.798325241270192
30
0
10
53.27912553149379
20
36.711256389736207
30
0
10
53.333916304589025
20
36.425504698428121
30
0
10
53.379843434325672
20
36.153562853317368
30
0
10
53.294777571050609
20
35.739220537201454
30
0
10
53.217621005823581
20
35.625398970583163
30
0
10
53.159257736324186
20
35.539516674318023
30
0
10
53.077800991027637
20
35.451356009499079
30
0
10
52.227738198325568
20
34.666578702085317
30
0
10
51.834830189825539
20
34.736877176633435
30
0
10
51.338372120123978
20
34.082814479460779
30
0
10
51.237671350583724
20
33.902174070833851
30
0
10
50.927749904187479
20
33.223131827029093
30
0
10
50.890465745577877
20
33.024051354114249
30
0
10
50.876706787141337
20
32.551870667304911
30
0
10
50.907847445349745
20
32.064377795009086
30
0
10
50.958432199560121
20
31.617194509220919
30
0
10
51.001173296124364
20
31.450035816845862
30
0
10
51.153336801907265
20
31.174401519157463
30
0
10
51.239726443838869
20
31.064302227750989
30
0
10
51.535780285992551
20
30.740113446722216
30
0
10
51.867346148240301
20
30.404754801355072
30
0
10
52.767703891498854
20
29.705641438472465
30
0
10
52.908581043210752
20
29.742349774698923
30
0
10
53.133928331287692
20
29.432001532194654
30
0
10
53.196100959372956
20
29.331918115736872
30
0
10
53.307319602760785
20
29.004823077025016
30
0
10
53.353393023425554
20
28.824750681186234
30
0
10
53.354588939329801
20
28.524986387933097
30
0
10
53.331656654177202
20
28.41732025265263
30
0
10
53.240056975722382
20
28.175630864248156
30
0
10
53.138021593737996
20
27.9316207769565
30
0
10
52.899040350634799
20
27.663547418998409
30
0
10
52.801665806521562
20
27.590723690632789
30
0
10
52.59689705982386
20
27.493085655973051
30
0
10
52.460587650959511
20
27.437972131942686
30
0
10
51.893029520897215
20
27.320102209488777
30
0
10
51.744887910738406
20
27.339217547676334
30
0
10
51.592553983403434
20
27.36500467877827
30
0
10
51.474660213690271
20
27.401314063262436
30
0
10
50.980556649389548
20
27.640226524669309
30
0
10
50.51400177187395
20
27.936465319397755
30
0
10
49.6545829299275
20
28.65615918763195
30
0
10
49.246140370196059
20
29.183054735225529
30
0
10
48.847879614081009
20
29.706695953028174
30
0
10
48.53538679183405
20
30.191395545505134
30
0
10
48.178908415305905
20
31.567349967102739
30
0
10
48.199472923562794
20
32.041392919593704
30
0
10
48.21189326733014
20
32.51934516315152
30
0
10
48.158715835861813
20
32.795258061651694
30
0
10
48.192816095522957
20
33.392518843190167
30
0
10
48.281773125191066
20
33.664876084862847
30
0
10
48.467265034337686
20
34.18994176353435
30
0
10
48.49463500459084
20
34.25070080829839
30
0
10
48.609656094351756
20
34.790372908414867
30
0
10
48.701309708415664
20
34.94818550613109
30
0
10
49.080803569152486
20
35.527585871476333
30
0
10
49.382589016880054
20
35.94046370863866
30
0
10
49.499998893605408
20
36.099999193102121
30
0
0
SPLINE
5
101
100
AcDbEntity
8
0
100
AcDbSpline
70
0
71
3
72
10
73
6
74
0
42
0.000000001
43
0.0000000001
44
0.0000000001
40
0
40
0
40
0
40
0
40
0.17817743654221108
40
0.17817743654221108
40
0.37929456060331213
40
0.37929456060331213
40
0.37929456060331213
40
0.37929456060331213
10
49.499998893605408
20
36.099999193102121
30
0
10
49.870328045274334
20
36.564329865993869
30
0
10
50.252714696197017
20
36.86132713853344
30
0
10
50.929696640969794
20
37.287454905279489
30
0
10
51.338779105474217
20
37.472940803021991
30
0
10
51.74690584690709
20
37.57962814544193
30
0
0
SPLINE
5
102
100
AcDbEntity
8
0
100
AcDbSpline
70
0
71
3
72
40
73
36
74
0
42
0.000000001
43
0.0000000001
44
0.0000000001
40
0
40
0
40
0
40
0
40
0.031334397888647975
40
0.031334397888647975
40
0.080080757876361305
40
0.080080757876361305
40
0.13562964949276923
40
0.13562964949276923
40
0.18369791292609672
40
0.18369791292609672
40
0.24579367029641302
40
0.24579367029641302
40
0.29053346334483221
40
0.29053346334483221
40
0.32969529103780693
40
0.32969529103780693
40
0.35797683951788967
40
0.35797683951788967
40
0.39261864015692366
40
0.39261864015692366
40
0.4677712321858255
40
0.4677712321858255
40
0.67322614490068255
40
0.67322614490068255
40
0.88431446936581981
40
0.88431446936581981
40
1.0716857544529623
40
1.0716857544529623
40
1.1285643753537129
40
1.1285643753537129
40
1.1477877389526243
40
1.1477877389526243
40
1.157721642785188
40
1.157721642785188
40
1.1706313647893398
40
1.1706313647893398
40
1.1706313647893398
40
1.1706313647893398
10
50.420903276001965
20
24.902493584821098
30
0
10
50.520207424052295
20
24.870119684626303
30
0
10
50.61149644923799
20
24.817423540845031
30
0
10
50.821704672668453
20
24.653931321988484
30
0
10
50.932295859279748
20
24.523814261463443
30
0
10
51.119725040637853
20
24.230469932305944
30
0
10
51.206547446748331
20
24.038971118150346
30
0
10
51.278552944736617
20
23.658234854526995
30
0
10
51.268558271901327
20
23.511201296850544
30
0
10
51.21261975418215
20
23.245443160472085
30
0
10
51.15322446956138
20
23.131189316622184
30
0
10
51.061782752174409
20
22.99127986183581
30
0
10
50.97841859933127
20
22.875863727386797
30
0
10
50.656370178859703
20
22.592490742548303
30
0
10
50.492082972500114
20
22.475767444841512
30
0
10
50.185978171677519
20
22.351273658693842
30
0
10
50.041145920603341
20
22.318334569908668
30
0
10
49.651194791633117
20
22.319689669213396
30
0
10
49.451240899069944
20
22.370450452176954
30
0
10
49.000973464990231
20
22.515151684573663
30
0
10
48.678743883253915
20
22.683683149712298
30
0
10
47.066575356523337
20
23.61034871710201
30
0
10
46.690455846039228
20
23.902903279560071
30
0
10
45.411896070265001
20
25.160882054171879
30
0
10
44.362200472296564
20
26.404474525430544
30
0
10
43.15387575852202
20
29.060855309340241
30
0
10
42.784732143978729
20
30.179352725742845
30
0
10
42.69394110500577
20
31.967793377719676
30
0
10
42.667133361516811
20
32.947768264532044
30
0
10
42.704159649511446
20
33.714196432275344
30
0
10
42.733917772357458
20
34.763592690948116
30
0
10
43.880155974227677
20
37.504697004381839
30
0
10
44.312164849680087
20
38.24607321539299
30
0
10
45.46260161928538
20
39.89877349334828
30
0
10
46.10075612702208
20
40.557995378129796
30
0
10
46.772734380073672
20
41.049262777630162
30
0
0
SPLINE
5
103
100
AcDbEntity
8
0
100
AcDbSpline
70
0
71
3
72
22
73
18
74
0
42
0.000000001
43
0.0000000001
44
0.0000000001
40
0
40
0
40
0
40
0
40
0.40077660561744372
40
0.40077660561744372
40
0.50906105674196922
40
0.50906105674196922
40
0.60316108129404289
40
0.60316108129404289
40
0.6853404960350078
40
0.6853404960350078
40
0.7459262609357924
40
0.7459262609357924
40
0.80236250208816029
40
0.80236250208816029
40
0.87146420102002331
40
0.87146420102002331
40
0.95112415324666033
40
0.95112415324666033
40
0.95112415324666033
40
0.95112415324666033
10
46.772734380073672
20
41.049262777630162
30
0
10
47.930696356489761
20
41.715454717905864
30
0
10
48.469267859015694
20
42.307014203370777
30
0
10
49.355731256117309
20
42.603391158521603
30
0
10
49.596481900215899
20
42.653863446852462
30
0
10
50.125991517039822
20
42.615894952245775
30
0
10
50.356608949749585
20
42.548317231763697
30
0
10
50.726347823865538
20
42.365993966329
30
0
10
50.887971187592456
20
42.250985189178593
30
0
10
51.108960600455752
20
42.00177467195207
30
0
10
51.182891615959079
20
41.881741222981162
30
0
10
51.272138986761163
20
41.623340842350693
30
0
10
51.288586165955962
20
41.494367074843161
30
0
10
51.273931197762195
20
41.201209481485904
30
0
10
51.231668458934926
20
41.042686321631948
30
0
10
51.101371434359841
20
40.720316498400564
30
0
10
51.004946882279313
20
40.553554640747393
30
0
10
50.89999886231297
20
40.399999096989632
30
0
0
LINE
5
104
100
AcDbEntity
8
0
100
AcDbLine
10
50.89999886231297
20
40.399999096989632
30
0
11
50.499998871253666
21
40.099999103695154
31
0
0
LINE
5
105
100
AcDbEntity
8
0
100
AcDbLine
10
50.499998871253666
20
40.099999103695154
30
0
11
49.999998882429537
21
39.799999110400677
31
0
0
SPLINE
5
106
100
AcDbEntity
8
0
100
AcDbSpline
70
0
71
3
72
18
73
14
74
0
42
0.000000001
43
0.0000000001
44
0.0000000001
40
0
40
0
40
0
40
0
40
0.10243973340480413
40
0.10243973340480413
40
0.1826116803467652
40
0.1826116803467652
40
0.22587669490820672
40
0.22587669490820672
40
0.24610026175965996
40
0.24610026175965996
40
0.25942079746251451
40
0.25942079746251451
40
0.27214780115695725
40
0.27214780115695725
40
0.27214780115695725
40
0.27214780115695725
10
49.999998882429537
20
39.799999110400677
30
0
10
49.689143734870086
20
39.658691096502409
30
0
10
48.878364572458359
20
39.260911367727317
30
0
10
47.021084247155486
20
37.490046411857747
30
0
10
46.541895830134322
20
36.803665773609787
30
0
10
45.615464941521779
20
34.687665192395606
30
0
10
45.42027907356789
20
34.228232947138338
30
0
10
45.388817921965561
20
32.167225648734743
30
0
10
45.42303708838476
20
30.876815226291505
30
0
10
46.39428419599399
20
28.35691650906422
30
0
10
46.865269721406165
20
27.656297708802491
30
0
10
47.994074161687919
20
26.481145709005652
30
0
10
48.861597732747015
20
25.763754691132924
30
0
10
50.420903276001965
20
24.902493584821098
30
0
0
LINE
5
107
100
AcDbEntity
8
0
100
AcDbLine
10
59.039518946076008
20
20.179804495910059
30
0
11
58.699998687969384
21
19.899999555200338
31
0
0
SPLINE
5
108
100
AcDbEntity
8
0
100
AcDbSpline
70
0
71
3
72
22
73
18
74
0
42
0.000000001
43
0.0000000001
44
0.0000000001
40
0
40
0
40
0
40
0
40
0.094666737858394689
40
0.094666737858394689
40
0.18769360271653684
40
0.18769360271653684
40
0.28957082193368755
40
0.28957082193368755
40
0.36350229499245668
40
0.36350229499245668
40
0.44052160684521335
40
0.44052160684521335
40
0.46437785095380069
40
0.46437785095380069
40
0.50411576665007463
40
0.50411576665007463
40
0.5506737408805038
40
0.5506737408805038
40
0.5506737408805038
40
0.5506737408805038
10
58.699998687969384
20
19.899999555200338
30
0
10
58.458638463351669
20
19.696724617294016
30
0
10
58.271756845725655
20
19.594726134920158
30
0
10
57.974824322267622
20
19.48319584833985
30
0
10
57.832196669074882
20
19.461417663745273
30
0
10
57.503765909064704
20
19.472298505351144
30
0
10
57.289808700194371
20
19.511095459121645
30
0
10
56.981671714936752
20
19.643051907080903
30
0
10
56.885177190772644
20
19.712254243344582
30
0
10
56.728346620299092
20
19.873589374752598
30
0
10
56.670032428293986
20
19.966197660352158
30
0
10
56.603440150703008
20
20.091529974329731
30
0
10
56.396855033509503
20
20.476805406840253
30
0
10
56.356012115468481
20
20.55401751020927
30
0
10
56.335947124430362
20
20.606949615516797
30
0
10
56.320885442813903
20
20.776781661967512
30
0
10
56.332404657574585
20
20.885584252243675
30
0
10
56.353581245912288
20
21.000000312924385
30
0
0
LINE
5
109
100
AcDbEntity
8
0
100
AcDbLine
10
56.353581245912281
20
21.000000312924389
30
0
11
56.353581245912288
21
44.431302355021558
31
0
0
SPLINE
5
110
100
AcDbEntity
8
0
100
AcDbSpline
70
0
71
3
72
18
73
14
74
0
42
0.000000001
43
0.0000000001
44
0.0000000001
40
0
40
0
40
0
40
0
40
0.13650202771487596
40
0.13650202771487596
40
0.29819559244470184
40
0.29819559244470184
40
0.47537992705595067
40
0.47537992705595067
40
0.67377011245153717
40
0.67377011245153717
40
0.77264575331148078
40
0.77264575331148078
40
0.87247681190661963
40
0.87247681190661963
40
0.87247681190661963
40
0.87247681190661963
10
56.353581245912288
20
44.431302355021558
30
0
10
56.574787220790412
20
44.828919089401573
30
0
10
56.657448058982126
20
44.956012161262244
30
0
10
56.796990123737984
20
45.136405030360464
30
0
10
56.883447813614374
20
45.219994509848661
30
0
10
57.13922717635991
20
45.365320742663144
30
0
10
57.282012178211417
20
45.405478450458006
30
0
10
57.504101771176963
20
45.455354181246449
30
0
10
57.722572773815955
20
45.495344085971752
30
0
10
58.027293655464113
20
45.449476275363807
30
0
10
58.130697805874583
20
45.415766410704904
30
0
10
58.395052747588196
20
45.276777687149931
30
0
10
58.536489929517892
20
45.181099192206503
30
0
10
58.656349421004926
20
45.093703749940481
30
0
0
LINE
5
111
100
AcDbEntity
8
0
100
AcDbLine
10
58.656349421004926
20
45.093703749940488
30
0
11
65.499998535977539
21
38.199999146163464
31
0
0
SPLINE
5
112
100
AcDbEntity
8
0
100
AcDbSpline
70
0
71
3
72
24
73
20
74
0
42
0.000000001
43
0.0000000001
44
0.0000000001
40
0
40
0
40
0
40
0
40
0.10139584782768221
40
0.10139584782768221
40
0.1338948513247053
40
0.1338948513247053
40
0.22093330593523036
40
0.22093330593523036
40
0.57951812816777437
40
0.57951812816777437
40
0.65807383768264716
40
0.65807383768264716
40
0.74896491233625451
40
0.74896491233625451
40
0.9280701236173432
40
0.9280701236173432
40
1.05539870680074
40
1.05539870680074
40
1.2486564742559252
40
1.2486564742559252
40
1.2486564742559252
40
1.2486564742559252
10
65.499998535977539
20
38.199999146163464
30
0
10
65.78502863287386
20
38.018360802671388
30
0
10
65.794451690768256
20
37.997216008105703
30
0
10
65.832919245766519
20
37.987850011229455
30
0
10
65.843219306089594
20
37.987278295616427
30
0
10
65.89576791078089
20
37.989419569048735
30
0
10
65.961639109263672
20
37.999215105723209
30
0
10
66.854401255079722
20
38.050579993843257
30
0
10
71.324042017573746
20
38.025860855975402
30
0
10
71.907441703284519
20
37.904445428418747
30
0
10
71.973769187034733
20
37.874160485170265
30
0
10
72.117569471949594
20
37.775157003656908
30
0
10
72.248589011576229
20
37.658799390136913
30
0
10
72.464812217681683
20
37.464695826174058
30
0
10
72.57472803052238
20
37.352318029559804
30
0
10
72.697124762235802
20
37.140705229364535
30
0
10
72.723704256506466
20
37.055570605727787
30
0
10
72.759501152689197
20
36.823646517336989
30
0
10
72.755800914650337
20
36.648821856256575
30
0
10
72.746501524599893
20
36.491771588639608
30
0
0
LINE
5
113
100
AcDbEntity
8
0
100
AcDbLine
10
72.746501524599879
20
36.491771588639608
30
0
11
72.746501524599893
21
28.52363675844235
31
0
0
SPLINE
5
114
100
AcDbEntity
8
0
100
AcDbSpline
70
0
71
3
72
16
73
12
74
0
42
0.000000001
43
0.0000000001
44
0.0000000001
40
0
40
0
40
0
40
0
40
0.086299896987308097
40
0.086299896987308097
40
0.21777796127475801
40
0.21777796127475801
40
0.35673397017515462
40
0.35673397017515462
40
0.44506597288079314
40
0.44506597288079314
40
0.53639481693428803
40
0.53639481693428803
40
0.53639481693428803
40
0.53639481693428803
10
72.746501524599893
20
28.52363675844235
30
0
10
72.773380347733635
20
28.237228933090599
30
0
10
72.743042164437881
20
28.064481144817051
30
0
10
72.665731489209165
20
27.78876276800375
30
0
10
72.582176945633293
20
27.639837947300091
30
0
10
72.404103796537981
20
27.392779789793359
30
0
10
72.284483975075403
20
27.266166178286678
30
0
10
72.045264140443706
20
27.114283445229962
30
0
10
71.945425309954828
20
27.071404963462221
30
0
10
71.726249627392079
20
27.022860510212865
30
0
10
71.613039501470581
20
27.019979138568896
30
0
10
71.500001065449652
20
27.033781958990634
30
0
0
LINE
5
115
100
AcDbEntity
8
0
100
AcDbLine
10
71.500001065449652
20
27.033781958990634
30
0
11
65.737789508029024
21
27.033781958990634
31
0
0
LINE
5
116
100
AcDbEntity
8
0
100
AcDbLine
10
65.737789508029024
20
27.033781958990634
30
0
11
59.039518946076008
21
20.179804495910059
31
0
0
SPLINE
5
117
100
AcDbEntity
8
0
100
AcDbSpline
70
0
71
3
72
71
73
67
74
0
42
0.000000001
43
0.0000000001
44
0.0000000001
40
11.182784664623085
40
11.182784664623085
40
11.182784664623085
40
11.182784664623085
40
11.577291549451706
40
11.577291549451706
40
12.833918306807016
40
12.833918306807016
40
13.477202455603173
40
13.477202455603173
40
13.477202455603173
40
14.312612346462641
40
14.312612346462641
40
14.901743721334743
40
14.901743721334743
40
15.251638362505673
40
15.251638362505673
40
15.637783240137631
40
15.637783240137631
40
16.117587876647381
40
16.117587876647381
40
16.245551576348582
40
16.245551576348582
40
16.358090986423598
40
16.358090986423598
40
16.48526985978221
40
16.48526985978221
40
16.65826356290474
40
16.65826356290474
40
16.812412184552002
40
16.812412184552002
40
16.955239673550278
40
16.955239673550278
40
17.151106210196019
40
17.151106210196019
40
17.552746392023749
40
17.552746392023749
40
18.564391758057535
40
18.564391758057535
40
19.851795386236741
40
19.851795386236741
40
20.610297913192916
40
20.610297913192916
40
21.368350712543247
40
21.368350712543247
40
21.936674998169579
40
21.936674998169579
40
22.613089039818377
40
22.613089039818377
40
23.039654884827719
40
23.039654884827719
40
23.303489558641921
40
23.303489558641921
40
23.499783735822774
40
23.499783735822774
40
23.73928299105836
40
23.73928299105836
40
23.937781750868975
40
23.937781750868975
40
24.104414693181596
40
24.104414693181596
40
24.266318753046935
40
24.266318753046935
40
24.489511007840495
40
24.489511007840495
40
24.623209012851078
40
24.623209012851078
40
24.659987120226258
40
24.659987120226258
40
24.659987120226258
40
24.659987120226258
10
48.291383353481351
20
45.131231245262676
30
0
10
47.94607350780835
20
44.956232583951781
30
0
10
47.605206219443012
20
44.788196203902686
30
0
10
46.243880221806286
20
44.025133538144267
30
0
10
44.724508846682589
20
43.086993338704751
30
0
10
43.008046921556222
20
41.367592522846167
30
0
10
42.176718307810049
20
40.385040190549255
30
0
10
41.275891220485249
20
38.43916008010747
30
0
10
40.106019616912214
20
35.912115859086391
30
0
10
40.009473260853582
20
34.5284675865176
30
0
10
39.945318178945598
20
32.763993671131033
30
0
10
39.904607062114273
20
30.075073767200173
30
0
10
41.432892505215221
20
25.887267861895687
30
0
10
42.272925563643355
20
24.534901646719419
30
0
10
44.553755259400958
20
22.032987961417511
30
0
10
45.795702971305133
20
21.209803788395742
30
0
10
47.596119601436484
20
20.158101240060482
30
0
10
48.322440571543794
20
19.900698313045083
30
0
10
48.85480634181674
20
19.357256945560401
30
0
10
48.94584395169354
20
19.230334263233484
30
0
10
49.056900861017994
20
18.96347463617062
30
0
10
49.080830125656043
20
18.835373937337248
30
0
10
49.082063069583256
20
18.559721572826025
30
0
10
49.052963296439117
20
18.417298772160738
30
0
10
48.94128324793656
20
18.105707330499143
30
0
10
48.84117305265957
20
17.939562730912332
30
0
10
48.613800038099527
20
17.677024308651358
30
0
10
48.468746811654071
20
17.550350682841067
30
0
10
48.108900921610037
20
17.370697483789993
30
0
10
47.927379892060586
20
17.325771861933596
30
0
10
47.487922623667238
20
17.290051237333522
30
0
10
47.233491749140988
20
17.325970200893195
30
0
10
46.510870493971979
20
17.506807174621233
30
0
10
46.022578560149569
20
17.746290421296347
30
0
10
44.562451971198278
20
18.590931316699425
30
0
10
43.415765490113294
20
19.533414134679912
30
0
10
41.056586828876632
20
21.892034281210073
30
0
10
39.339470782408149
20
23.932758660232793
30
0
10
37.700832817459478
20
27.88212846839096
30
0
10
37.337862816794633
20
29.473002561968382
30
0
10
37.173548761318187
20
33.158747090973698
30
0
10
37.357160748569186
20
35.751694123971248
30
0
10
38.896213448108355
20
40.084721262703084
30
0
10
39.888982957610835
20
41.736027305747683
30
0
10
42.988709959189663
20
45.143635803930906
30
0
10
44.93441551229337
20
46.506359606617274
30
0
10
46.837847482040246
20
47.556490075715317
30
0
10
47.257185190358555
20
47.674766487947579
30
0
10
47.720973873995305
20
47.724118623764312
30
0
10
47.874876510023512
20
47.710271138023927
30
0
10
48.126060032477838
20
47.635729450038859
30
0
10
48.257126024526585
20
47.579032424253569
30
0
10
48.590026568612899
20
47.340196314164075
30
0
10
48.760133431403503
20
47.163171218343642
30
0
10
48.985840334290067
20
46.838656506260136
30
0
10
49.052797525299539
20
46.697777180740651
30
0
10
49.115685218226346
20
46.445716442167907
30
0
10
49.120706575020662
20
46.333850819203278
30
0
10
49.086546502361259
20
46.111013004257785
30
0
10
49.049518470129179
20
46.00392796903791
30
0
10
48.925255670134916
20
45.738537073194877
30
0
10
48.787507526778612
20
45.499181776462848
30
0
10
48.581977756866408
20
45.284585168953804
30
0
10
48.506085434066094
20
45.238698769910442
30
0
10
48.356327091101363
20
45.162884475119867
30
0
10
48.324052300098145
20
45.146597967838467
30
0
10
48.291383353481351
20
45.131231245262676
30
0
0
LWPOLYLINE
5
118
100
AcDbEntity
8
0
100
AcDbPolyline
90
16
70
1
43
0.0
10
112.00000000000001
20
25
10
112.00000000000001
20
15
10
117.00000000000001
20
15
10
117.00000000000001
20
5
10
7.0000001043081284
20
5
10
7.0000001043081284
20
17.5
10
12.000000104308128
20
17.5
10
12.000000104308128
20
27.5
10
7.0000001043081284
20
27.5
10
7.0000001043081284
20
52.5
10
12.000000104308128
20
52.5
10
12.000000104308128
20
62.5
10
7.0000001043081284
20
62.5
10
7.0000001043081284
20
75
10
117.00000000000001
20
35
10
117.00000000000001
20
25
0
ENDSEC
0
SECTION
2
OBJECTS
0
DICTIONARY
5
C
100
AcDbDictionary
3
ACAD_GROUP
350
D
3
ACAD_MLINESTYLE
350
17
0
DICTIONARY
5
D
100
AcDbDictionary
0
DICTIONARY
5
1A
330
C
100
AcDbDictionary
0
DICTIONARY
5
17
100
AcDbDictionary
0
ENDSEC
0
EOF
